<?xml version="1.0" encoding="UTF-8"?>
<svg width="16px" height="15px" viewBox="0 0 16 15" version="1.1" xmlns="http://www.w3.org/2000/svg" xmlns:xlink="http://www.w3.org/1999/xlink">
    <title>Beskar</title>
    <g id="Beskar" stroke="none" stroke-width="1">
        <g id="SvgjsG1922" fill="#f5f5f5">
            <g id="Group">
                <path d="M11.5132727,0.995295987 C11.9000987,0.906222805 12.1455045,1.11341477 12.3534754,1.48132574 C12.7049464,2.10677438 13.1042506,2.71092292 13.495236,3.3189442 C13.6408157,3.54356353 13.6574534,3.73720088 13.5077143,3.97343845 C12.7590188,5.15849904 12.0228016,6.34743238 11.2907438,7.54023847 C11.1264467,7.80939439 11.0453381,7.79196702 10.8394468,7.54604759 C10.3902295,7.00967212 10.4110266,6.54881523 10.831128,5.98726691 C11.3240192,5.32889991 11.7004466,4.59695072 12.1434248,3.90566538 C12.2682073,3.71009165 12.2557291,3.56099089 12.1351059,3.37316266 C11.7295625,2.7419049 11.3344177,2.10483801 10.9475917,1.46389838 C10.687628,1.03208708 10.7125845,1.00110511 11.2637076,0.99723236 C11.3198597,0.995295987 11.3801713,0.995295987 11.5132727,0.995295987 Z" id="Path"></path>
                <path d="M15.7891558,7.06001784 C16.0657572,7.32530101 15.9971268,7.62931165 15.7600399,7.97979526 C15.3565762,8.57813467 14.9967864,9.20358332 14.6307575,9.82322284 C14.4955764,10.0517149 14.3229605,10.1640246 14.0297214,10.1640246 C12.5552073,10.1582155 11.0786134,10.1640246 9.60409925,10.1756428 C9.27134571,10.1775792 9.24638919,10.1059334 9.37117177,9.81354097 C9.64361374,9.18228321 10.0824325,8.96734575 10.8124106,9.02156421 C11.6713307,9.08740091 12.5406493,9.01962783 13.4037288,9.0293097 C13.6470549,9.03124607 13.7801563,8.94798201 13.8945403,8.75434466 C14.2751272,8.10953228 14.6681923,7.47246539 15.0695763,6.83733488 C15.3399385,6.40939633 15.3815327,6.41520546 15.6622935,6.85669862 C15.6934892,6.90510795 15.7226051,6.95158092 15.7891558,7.06001784 Z" id="Path"></path>
                <path d="M12.313961,13.5507419 C12.2078958,13.9070346 11.8897002,14.0057896 11.446722,13.9902986 C10.687628,13.9670622 9.92645425,13.992235 9.16736022,14.0096624 C8.88659942,14.0154715 8.69734584,13.9341438 8.54968645,13.6979062 C7.81138952,12.5089729 7.06269404,11.3239123 6.30983914,10.1427245 C6.13930294,9.87550493 6.19545511,9.8193501 6.52820865,9.7748135 C7.25194762,9.67605845 7.67204897,9.92004152 7.98816484,10.5358083 C8.36043287,11.260012 8.85956319,11.9261245 9.28590367,12.6251553 C9.40652684,12.8226654 9.55210651,12.8865657 9.78919341,12.8807566 C10.5794831,12.8633293 11.3697728,12.8575201 12.1579827,12.8613929 C12.6903884,12.8633293 12.7049464,12.9001204 12.4387435,13.3474226 C12.4096276,13.395832 12.3805117,13.4442413 12.313961,13.5507419 Z" id="Path"></path>
                <path d="M4.54208592,14.0251534 C4.15733963,14.1180993 3.90777447,13.9128437 3.69772379,13.5488055 C3.33793402,12.9272296 2.93031092,12.3269538 2.53308638,11.7247416 C2.38542699,11.5020587 2.3667096,11.3084213 2.51228928,11.0702474 C3.24434708,9.8774413 3.96600634,8.67882609 4.68350618,7.47827452 C4.84572353,7.20718222 4.9247525,7.22267321 5.13480317,7.46859265 C5.59025959,8.00109536 5.57570162,8.46195226 5.16391911,9.02737333 C4.67934676,9.69154944 4.31331785,10.4273714 3.87865853,11.1225295 C3.75595566,11.3200396 3.77051363,11.4691403 3.8932165,11.6550322 C4.30707873,12.2804808 4.70846269,12.913675 5.10568724,13.5507419 C5.37189008,13.9806168 5.34693356,14.0115988 4.7958105,14.0212806 C4.73341921,14.023217 4.67310763,14.023217 4.54208592,14.0251534 Z" id="Path"></path>
                <path d="M0.18925358,8.00884086 C-0.0915072255,7.74549406 -0.0270362257,7.44148342 0.205891257,7.08906344 C0.603115804,6.48685128 0.954586738,5.85752988 1.3122968,5.23208124 C1.44539822,5.00165279 1.6138547,4.88740675 1.90917348,4.88547038 C3.38368763,4.87578851 4.8602815,4.85255203 6.33479565,4.8254428 C6.6675492,4.81963368 6.69250572,4.8912795 6.57188256,5.1836719 C6.30775943,5.81880241 5.87310011,6.03761262 5.1410423,5.99113966 C4.28212221,5.93498482 3.41280357,6.01050339 2.54972405,6.01243976 C2.30639802,6.01243976 2.1732966,6.09957657 2.06307199,6.29321392 C1.69080396,6.94189905 1.30605767,7.58477506 0.912992545,8.22184195 C0.648869417,8.65171687 0.607275224,8.64590774 0.320275289,8.2102237 C0.286999934,8.16375074 0.255804289,8.1153414 0.18925358,8.00884086 Z" id="Path"></path>
                <path d="M3.57918034,1.47938937 C3.68108612,1.12116027 3.99720198,1.02046884 4.44018014,1.03015071 C5.19927417,1.0456417 5.96044791,1.01078697 6.71954194,0.985614119 C7.00030275,0.975932252 7.19163604,1.05532357 7.34137513,1.29156113 C8.09423003,2.47274898 8.85748348,3.6481277 9.62697606,4.82157005 C9.79959196,5.08685322 9.74551951,5.14300806 9.41276596,5.19335377 C8.69110671,5.29985431 8.26684594,5.05974399 7.94241123,4.44784996 C7.56182436,3.72945539 7.0543752,3.06915202 6.61763617,2.37399393 C6.4949333,2.1784202 6.34935362,2.11451988 6.11226672,2.12226537 C5.32197704,2.1493746 4.53376708,2.16292922 3.74347741,2.16873834 C3.21107173,2.17261108 3.19443405,2.13581999 3.45647747,1.68658133 C3.48559341,1.63623562 3.51470934,1.58782628 3.57918034,1.47938937 Z" id="Path"></path>
                <path d="M6.03947688,3.09819762 C5.1826365,3.10207037 4.32579611,3.13305235 3.46895573,3.13498872 C3.27762244,2.83097808 2.91991238,2.62572249 2.51436899,2.62572249 C1.90293435,2.62572249 1.40588374,3.08851576 1.40588374,3.65780957 C1.40588374,4.22710338 1.90293435,4.68989665 2.51436899,4.68989665 C2.89703557,4.68989665 3.23394854,4.50981392 3.43360066,4.23484888 C4.01591937,4.21354877 4.60031779,4.18643954 5.17847708,4.22710338 C5.78783201,4.2697036 6.06859282,3.98505669 6.31607827,3.56486364 C6.53444778,3.18727081 6.49285359,3.09626125 6.03947688,3.09819762 Z M2.51436899,4.19805778 C2.46029654,4.19805778 2.40622409,4.19031229 2.35631106,4.17869405 C2.11298502,4.11479372 1.93412999,3.90566538 1.93412999,3.65780957 C1.93412999,3.35960805 2.1940937,3.11756136 2.51436899,3.11756136 C2.61003564,3.11756136 2.70154286,3.13886147 2.78265154,3.17758894 C2.9677457,3.26859849 3.09460799,3.44868123 3.09460799,3.65780957 C3.09460799,3.95601109 2.83464428,4.19805778 2.51436899,4.19805778 Z" id="Shape"></path>
                <path d="M3.50015137,6.85863499 C3.26306447,6.4926604 3.15491957,6.47910578 2.93031092,6.84508038 C2.46861538,7.59058418 2.03811548,8.35157897 1.5701808,9.09321003 C1.56186196,9.10676464 1.55354312,9.12031926 1.54522428,9.1319375 C0.950427319,9.14742849 0.470014385,9.60441263 0.470014385,10.1620882 C0.470014385,10.731382 0.967064996,11.1941753 1.57849964,11.1941753 C2.18993428,11.1941753 2.68698489,10.731382 2.68698489,10.1620882 C2.68698489,9.99556008 2.64331099,9.83677746 2.56844144,9.69735856 C2.88039789,9.15904673 3.17363696,8.60911665 3.54590499,8.10759591 C3.88905708,7.63899352 3.7642745,7.26914618 3.50015137,6.85863499 Z M2.12754299,10.3324891 C2.05059373,10.5474265 1.83222422,10.7042728 1.57641993,10.7042728 C1.25614464,10.7042728 0.996180932,10.4622261 0.996180932,10.1640246 C0.996180932,9.94134163 1.14176061,9.74770428 1.34973158,9.66637659 C1.41836199,9.63926736 1.49531125,9.62377637 1.57641993,9.62377637 C1.89669522,9.62377637 2.15665893,9.86582306 2.15665893,10.1640246 C2.15665893,10.2221158 2.14626038,10.2782706 2.12754299,10.3324891 Z" id="Shape"></path>
                <path d="M11.1784395,3.78367385 C10.7479396,3.0633429 10.2883237,2.35850294 9.86198325,1.63623562 C9.99300496,1.46777112 10.0678745,1.26057916 10.0678745,1.0378962 C10.0678745,0.468602391 9.5708239,0.00580912055 8.95938926,0.00580912055 C8.34795461,0.00580912055 7.850904,0.468602391 7.850904,1.0378962 C7.850904,1.53941694 8.23773,1.95961 8.74933858,2.05061955 C9.08209213,2.56956765 9.43148335,3.07883389 9.69768619,3.62489122 C9.95141077,4.14383932 10.3548744,4.23484888 10.8706424,4.2329125 C11.332338,4.23097613 11.3988887,4.15158482 11.1784395,3.78367385 Z M9.52507029,1.16182411 C9.46475871,1.39999805 9.23391093,1.57814441 8.95938926,1.57814441 C8.71190381,1.57814441 8.49769371,1.43098003 8.41658503,1.22766081 C8.39370823,1.1695696 8.37915026,1.10566928 8.37915026,1.0378962 C8.37915026,0.739694683 8.63911397,0.497647993 8.95938926,0.497647993 C9.27966455,0.497647993 9.53962825,0.739694683 9.53962825,1.0378962 C9.54170796,1.08049642 9.53546883,1.12116027 9.52507029,1.16182411 Z" id="Shape"></path>
                <path d="M14.4934967,3.95794746 C13.882062,3.95794746 13.3850114,4.42074073 13.3850114,4.99003455 C13.3850114,5.10815333 13.4058085,5.220463 13.445323,5.32502717 L13.445323,5.32502717 C13.1208883,5.86721175 12.8172507,6.42101458 12.4366638,6.92447169 C12.0831132,7.38920133 12.2016566,7.76098505 12.4616203,8.17343261 C12.6945478,8.54327995 12.8026927,8.55683456 13.0314608,8.19473272 C13.4910766,7.47246539 13.9215765,6.73470709 14.3853518,6.01631251 C14.4207068,6.02018526 14.4560619,6.02018526 14.491417,6.02018526 C15.1028516,6.02018526 15.5999022,5.55739199 15.5999022,4.98809817 C15.5999022,4.41880436 15.1049313,3.95794746 14.4934967,3.95794746 Z M14.6411561,5.51091902 C14.5933228,5.52253727 14.5454894,5.52834639 14.4934967,5.52834639 C14.1732214,5.52834639 13.9132577,5.2862997 13.9132577,4.98809817 C13.9132577,4.87578851 13.9506925,4.77122434 14.0151635,4.68408753 C14.1191489,4.54079589 14.2959243,4.44784996 14.4934967,4.44784996 C14.813772,4.44784996 15.0737357,4.68989665 15.0737357,4.98809817 C15.0737357,5.23982673 14.8907212,5.45089145 14.6411561,5.51091902 Z" id="Shape"></path>
                <path d="M13.588823,10.3925167 C13.2331926,10.3925167 12.914997,10.5512993 12.7111855,10.7952823 C12.056077,10.808837 11.4009684,10.8417553 10.752099,10.7875369 C10.1427441,10.7371911 9.85782383,11.0199017 9.60617896,11.436222 C9.38157032,11.8099421 9.4210848,11.902888 9.87446151,11.9048244 C10.7853743,11.9106335 11.6962872,11.8854606 12.6072,11.8970789 C12.7922942,12.2262624 13.1624825,12.4528181 13.588823,12.4528181 C14.2002576,12.4528181 14.6973082,11.9900248 14.6973082,11.420731 C14.6973082,10.8553099 14.2002576,10.3925167 13.588823,10.3925167 Z M13.588823,11.9629156 C13.445323,11.9629156 13.3143013,11.9145062 13.2123955,11.8331786 C13.087613,11.7344235 13.008584,11.5872591 13.008584,11.4226674 C13.008584,11.1244658 13.2685477,10.8824192 13.588823,10.8824192 L13.5909027,10.8824192 C13.911178,10.8824192 14.1711417,11.1244658 14.1711417,11.4226674 C14.169062,11.7208689 13.9090983,11.9629156 13.588823,11.9629156 Z" id="Shape"></path>
                <path d="M7.28522297,12.9330387 C6.94831001,12.4218361 6.59267965,11.9164426 6.32023769,11.3761944 C6.06027398,10.861119 5.65473059,10.7739822 5.1410423,10.7817277 C4.68142647,10.7875369 4.61487576,10.8688645 4.8394844,11.2329028 C5.27830314,11.9474246 5.74623782,12.6464554 6.18089714,13.3609773 C6.05611456,13.5275054 5.98332472,13.7308246 5.98332472,13.9476984 C5.98332472,14.5169922 6.48037533,14.9797855 7.09180997,14.9797855 C7.70324462,14.9797855 8.20029523,14.5169922 8.20029523,13.9476984 C8.20029523,13.4423049 7.80307068,13.0201755 7.28522297,12.9330387 Z M7.09180997,14.489883 C6.77153468,14.489883 6.51157098,14.2478363 6.51157098,13.9496348 C6.51157098,13.9109073 6.51573039,13.8721799 6.52404923,13.8353888 C6.58020139,13.5914057 6.81312888,13.4074502 7.09180997,13.4074502 C7.33929542,13.4074502 7.55142581,13.5526782 7.6346142,13.7559975 L7.6346142,13.7559975 C7.657491,13.816025 7.67204897,13.8799254 7.67204897,13.9476984 C7.67204897,14.2478363 7.41208526,14.489883 7.09180997,14.489883 Z" id="Shape"></path>
            </g>
        </g>
    </g>
</svg>
