<?xml version="1.0" encoding="UTF-8"?>
<svg width="32px" height="32px" viewBox="0 0 32 32" version="1.1" xmlns="http://www.w3.org/2000/svg" xmlns:xlink="http://www.w3.org/1999/xlink">
    <!-- Generator: Sketch 54.1 (76490) - https://sketchapp.com -->
    <title>favicon-32</title>
    <desc>Created with Sketch.</desc>
    <g id="favicon-32" stroke="none" stroke-width="1" fill="none" fill-rule="evenodd">
        <circle id="Oval" fill="#0087FF" cx="16" cy="16" r="16"></circle>
        <circle id="transmitter" stroke="#0087FF" cx="21.5" cy="6.5" r="1.5"></circle>
        <path d="M11,21 C9.34314575,21 8,19.6568542 8,18 C8,16.3431458 9.34314575,15 11,15 C12.6568542,15 14,16.3431458 14,18 C14,19.6568542 12.6568542,21 11,21 Z M11.5,19 C12.3284271,19 13,18.3284271 13,17.5 C13,16.6715729 12.3284271,16 11.5,16 C10.6715729,16 10,16.6715729 10,17.5 C10,18.3284271 10.6715729,19 11.5,19 Z" id="eye-lt" stroke="#0087FF" stroke-width="0.5" fill="#0087FF"></path>
        <path d="M21,21 C19.3431458,21 18,19.6568542 18,18 C18,16.3431458 19.3431458,15 21,15 C22.6568542,15 24,16.3431458 24,18 C24,19.6568542 22.6568542,21 21,21 Z M21.5,19 C22.3284271,19 23,18.3284271 23,17.5 C23,16.6715729 22.3284271,16 21.5,16 C20.6715729,16 20,16.6715729 20,17.5 C20,18.3284271 20.6715729,19 21.5,19 Z" id="eye-lt-copy" stroke="#0087FF" stroke-width="0.5" fill="#0087FF"></path>
        <path d="M6.02467427,12.8540341 C5.96926159,12.8499722 5.91366603,12.8489922 5.85814462,12.8510986 C5.03029847,12.8825056 4.38466486,13.5790654 4.41609033,14.4069113 C4.55745392,18.1330617 4.62815501,20.7426204 4.62815501,22.2398518 C4.62815501,22.5303887 4.62549708,22.8000368 4.62017157,23.0488623 C4.61957823,23.076585 4.61975373,23.1043187 4.62069787,23.1320316 C4.64890459,23.959977 5.34295322,24.608294 6.17089858,24.5800891 C13.1760592,24.3414349 18.2800631,24.2220859 21.4856607,24.2220859 C23.2682126,24.2220859 24.7069828,24.2589617 25.8040001,24.3330379 C25.8556561,24.3365259 25.907458,24.3373372 25.9591978,24.3354685 C26.7870789,24.3055673 27.4339728,23.6101963 27.4040795,22.7823152 C27.2663588,18.9692085 27.1974798,16.2866067 27.1974798,14.7305984 C27.1974798,14.5117003 27.1988411,14.3056493 27.2015669,14.1124171 C27.2017829,14.0747597 27.2017829,14.0747597 27.2007386,14.0371161 C27.1708361,13.209224 26.4754569,12.5623283 25.6475649,12.592237 C18.581741,12.8474469 13.4766232,12.9750754 10.3290792,12.9750754 C8.56129966,12.9750754 7.12718922,12.9348519 6.02467427,12.8540341 Z" id="Rectangle" stroke="#0B1532"></path>
        <path d="M16.25,12.5 C15.7990416,9.54325144 15.7990416,7.70411044 16.25,6.982577 C16.7009584,6.26104355 17.9509584,6.10018455 20,6.5" id="Line-3" stroke="#0B1532" stroke-width="1.25" stroke-linecap="round"></path>
        <path d="M2.48970633,14.5 L4.5,14.5 L4.5,21.5 L2.65866255,21.5 C2.11952342,21.5 1.67744078,21.0726036 1.65923299,20.533772 L1.49027677,15.533772 C1.47162502,14.9818023 1.90396465,14.5192222 2.45593436,14.5005704 C2.47281713,14.5000951 2.47281713,14.5000951 2.48970633,14.5 Z" id="ear-lt" stroke="#FFFFFF" fill="#FFFFFF"></path>
        <path d="M28.4897063,14.5 L30.5,14.5 L30.5,21.5 L28.6586626,21.5 C28.1195234,21.5 27.6774408,21.0726036 27.659233,20.533772 L27.4902768,15.533772 C27.471625,14.9818023 27.9039647,14.5192222 28.4559344,14.5005704 C28.4728171,14.5000951 28.4728171,14.5000951 28.4897063,14.5 Z" id="ear-lt" stroke="#FFFFFF" fill="#FFFFFF" transform="translate(29.000000, 18.000000) scale(-1, 1) translate(-29.000000, -18.000000) "></path>
        <circle id="transmitter" stroke="#FFFFFF" fill="#FFFFFF" cx="21.5" cy="6.5" r="1.5"></circle>
        <path d="M16.25,12.5 C15.7990416,9.54325144 15.7990416,7.70411044 16.25,6.982577 C16.7009584,6.26104355 17.9509584,6.10018455 20,6.5" id="Line-3" stroke="#FFFFFF" stroke-width="1.25" stroke-linecap="round"></path>
        <path d="M6.12395901,9.83113621 C6.06394812,9.82576779 6.00366829,9.82401987 5.94344716,9.82590198 C5.11541281,9.85178071 4.46514343,10.5440121 4.49103675,11.3720463 C4.64251433,16.2188309 4.71826507,19.5926184 4.71826507,21.4970958 C4.71826507,22.0414994 4.71208264,22.5257837 4.69968805,22.9501806 C4.69865016,22.9857184 4.69887607,23.0212819 4.70036535,23.0568037 C4.73506753,23.8845066 5.4341845,24.5273592 6.2618874,24.4926532 C13.2657861,24.1990086 18.3692856,24.0521531 21.5757708,24.0521531 C23.3521455,24.0521531 24.7880759,24.0971813 25.8859779,24.1877162 C25.9418109,24.1923203 25.997858,24.1937929 26.0538558,24.192127 C26.8819094,24.1674926 27.5332132,23.4762511 27.5085879,22.6481975 C27.3612637,17.6960849 27.2875899,14.232791 27.2875899,12.2549377 C27.2875899,11.8049627 27.2913993,11.3994418 27.2990318,11.0382443 C27.2997242,11.0054766 27.2993424,10.9726951 27.2978872,10.9399524 C27.2611036,10.1123439 26.5603751,9.47125269 25.7327665,9.50803433 C18.6703575,9.82192729 13.5671164,9.9789094 10.4191893,9.9789094 C8.65816817,9.9789094 7.22724401,9.92983336 6.12395901,9.83113621 Z" id="Rectangle" stroke="#FFFFFF" fill="#FFFFFF"></path>
        <path d="M10.5,21 C8.56700338,21 7,19.4329966 7,17.5 C7,15.5670034 8.56700338,14 10.5,14 C12.4329966,14 14,15.5670034 14,17.5 C14,19.4329966 12.4329966,21 10.5,21 Z M12,17 C12.5522847,17 13,16.5522847 13,16 C13,15.4477153 12.5522847,15 12,15 C11.4477153,15 11,15.4477153 11,16 C11,16.5522847 11.4477153,17 12,17 Z" id="eye-lt" stroke="#0087FF" stroke-width="0.5" fill="#0087FF"></path>
        <path d="M21.5,21 C19.5670034,21 18,19.4329966 18,17.5 C18,15.5670034 19.5670034,14 21.5,14 C23.4329966,14 25,15.5670034 25,17.5 C25,19.4329966 23.4329966,21 21.5,21 Z M23,17 C23.5522847,17 24,16.5522847 24,16 C24,15.4477153 23.5522847,15 23,15 C22.4477153,15 22,15.4477153 22,16 C22,16.5522847 22.4477153,17 23,17 Z" id="eye-lt-copy" stroke="#0087FF" stroke-width="0.5" fill="#0087FF"></path>
    </g>
</svg>