<?xml version="1.0" encoding="UTF-8"?>
<svg width="32px" height="32px" viewBox="0 0 32 32" version="1.1" xmlns="http://www.w3.org/2000/svg" xmlns:xlink="http://www.w3.org/1999/xlink">
    <!-- Generator: Sketch 54.1 (76490) - https://sketchapp.com -->
    <title>favicon-32</title>
    <desc>Created with Sketch.</desc>
    <g id="favicon-32" stroke="none" stroke-width="1" fill="none" fill-rule="evenodd">
        <rect id="Rectangle" fill="#FFFFFF" x="0" y="0" width="32" height="32" rx="2"></rect>
        <path d="M2.48970633,14.5 L4.5,14.5 L4.5,21.5 L2.65866255,21.5 C2.11952342,21.5 1.67744078,21.0726036 1.65923299,20.533772 L1.49027677,15.533772 C1.47162502,14.9818023 1.90396465,14.5192222 2.45593436,14.5005704 C2.47281713,14.5000951 2.47281713,14.5000951 2.48970633,14.5 Z" id="ear-lt" stroke="#0087FF"></path>
        <path d="M28.4897063,14.5 L30.5,14.5 L30.5,21.5 L28.6586626,21.5 C28.1195234,21.5 27.6774408,21.0726036 27.659233,20.533772 L27.4902768,15.533772 C27.471625,14.9818023 27.9039647,14.5192222 28.4559344,14.5005704 C28.4728171,14.5000951 28.4728171,14.5000951 28.4897063,14.5 Z" id="ear-lt" stroke="#0087FF" transform="translate(29.000000, 18.000000) scale(-1, 1) translate(-29.000000, -18.000000) "></path>
        <circle id="transmitter" stroke="#0087FF" cx="21.5" cy="5.5" r="1.5"></circle>
        <path d="M11,20 C9.34314575,20 8,18.6568542 8,17 C8,15.3431458 9.34314575,14 11,14 C12.6568542,14 14,15.3431458 14,17 C14,18.6568542 12.6568542,20 11,20 Z M11.5,18 C12.3284271,18 13,17.3284271 13,16.5 C13,15.6715729 12.3284271,15 11.5,15 C10.6715729,15 10,15.6715729 10,16.5 C10,17.3284271 10.6715729,18 11.5,18 Z" id="eye-lt" stroke="#0087FF" stroke-width="0.5" fill="#0087FF"></path>
        <path d="M21,20 C19.3431458,20 18,18.6568542 18,17 C18,15.3431458 19.3431458,14 21,14 C22.6568542,14 24,15.3431458 24,17 C24,18.6568542 22.6568542,20 21,20 Z M21.5,18 C22.3284271,18 23,17.3284271 23,16.5 C23,15.6715729 22.3284271,15 21.5,15 C20.6715729,15 20,15.6715729 20,16.5 C20,17.3284271 20.6715729,18 21.5,18 Z" id="eye-lt-copy" stroke="#0087FF" stroke-width="0.5" fill="#0087FF"></path>
        <path d="M6.02467427,11.8540341 C5.96926159,11.8499722 5.91366603,11.8489922 5.85814462,11.8510986 C5.03029847,11.8825056 4.38466486,12.5790654 4.41609033,13.4069113 C4.55745392,17.1330617 4.62815501,19.7426204 4.62815501,21.2398518 C4.62815501,21.5303887 4.62549708,21.8000368 4.62017157,22.0488623 C4.61957823,22.076585 4.61975373,22.1043187 4.62069787,22.1320316 C4.64890459,22.959977 5.34295322,23.608294 6.17089858,23.5800891 C13.1760592,23.3414349 18.2800631,23.2220859 21.4856607,23.2220859 C23.2682126,23.2220859 24.7069828,23.2589617 25.8040001,23.3330379 C25.8556561,23.3365259 25.907458,23.3373372 25.9591978,23.3354685 C26.7870789,23.3055673 27.4339728,22.6101963 27.4040795,21.7823152 C27.2663588,17.9692085 27.1974798,15.2866067 27.1974798,13.7305984 C27.1974798,13.5117003 27.1988411,13.3056493 27.2015669,13.1124171 C27.2017829,13.0747597 27.2017829,13.0747597 27.2007386,13.0371161 C27.1708361,12.209224 26.4754569,11.5623283 25.6475649,11.592237 C18.581741,11.8474469 13.4766232,11.9750754 10.3290792,11.9750754 C8.56129966,11.9750754 7.12718922,11.9348519 6.02467427,11.8540341 Z" id="Rectangle" stroke="#0B1532"></path>
        <path d="M16.25,11.5 C15.7990416,8.54325144 15.7990416,6.70411044 16.25,5.982577 C16.7009584,5.26104355 17.9509584,5.10018455 20,5.5" id="Line-3" stroke="#0B1532" stroke-width="1.25" stroke-linecap="round"></path>
        <path d="M2.48970633,14.5 L4.5,14.5 L4.5,21.5 L2.65866255,21.5 C2.11952342,21.5 1.67744078,21.0726036 1.65923299,20.533772 L1.49027677,15.533772 C1.47162502,14.9818023 1.90396465,14.5192222 2.45593436,14.5005704 C2.47281713,14.5000951 2.47281713,14.5000951 2.48970633,14.5 Z" id="ear-lt" stroke="#0B1532" fill="#0B1532"></path>
        <path d="M28.4897063,14.5 L30.5,14.5 L30.5,21.5 L28.6586626,21.5 C28.1195234,21.5 27.6774408,21.0726036 27.659233,20.533772 L27.4902768,15.533772 C27.471625,14.9818023 27.9039647,14.5192222 28.4559344,14.5005704 C28.4728171,14.5000951 28.4728171,14.5000951 28.4897063,14.5 Z" id="ear-lt" stroke="#0B1532" fill="#0B1532" transform="translate(29.000000, 18.000000) scale(-1, 1) translate(-29.000000, -18.000000) "></path>
        <circle id="transmitter" stroke="#0B1532" fill="#0B1532" cx="21.5" cy="5.5" r="1.5"></circle>
        <path d="M6.02467427,11.8540341 C5.96926159,11.8499722 5.91366603,11.8489922 5.85814462,11.8510986 C5.03029847,11.8825056 4.38466486,12.5790654 4.41609033,13.4069113 C4.55745392,17.1330617 4.62815501,19.7426204 4.62815501,21.2398518 C4.62815501,21.5303887 4.62549708,21.8000368 4.62017157,22.0488623 C4.61957823,22.076585 4.61975373,22.1043187 4.62069787,22.1320316 C4.64890459,22.959977 5.34295322,23.608294 6.17089858,23.5800891 C13.1760592,23.3414349 18.2800631,23.2220859 21.4856607,23.2220859 C23.2682126,23.2220859 24.7069828,23.2589617 25.8040001,23.3330379 C25.8556561,23.3365259 25.907458,23.3373372 25.9591978,23.3354685 C26.7870789,23.3055673 27.4339728,22.6101963 27.4040795,21.7823152 C27.2663588,17.9692085 27.1974798,15.2866067 27.1974798,13.7305984 C27.1974798,13.5117003 27.1988411,13.3056493 27.2015669,13.1124171 C27.2017829,13.0747597 27.2017829,13.0747597 27.2007386,13.0371161 C27.1708361,12.209224 26.4754569,11.5623283 25.6475649,11.592237 C18.581741,11.8474469 13.4766232,11.9750754 10.3290792,11.9750754 C8.56129966,11.9750754 7.12718922,11.9348519 6.02467427,11.8540341 Z" id="Rectangle" stroke="#0B1532" fill="#0B1532"></path>
        <path d="M11,20 C9.34314575,20 8,18.6568542 8,17 C8,15.3431458 9.34314575,14 11,14 C12.6568542,14 14,15.3431458 14,17 C14,18.6568542 12.6568542,20 11,20 Z M12,17 C12.5522847,17 13,16.5522847 13,16 C13,15.4477153 12.5522847,15 12,15 C11.4477153,15 11,15.4477153 11,16 C11,16.5522847 11.4477153,17 12,17 Z" id="eye-lt" stroke="#0B1532" stroke-width="0.5" fill="#FFFFFF"></path>
        <path d="M21,20 C19.3431458,20 18,18.6568542 18,17 C18,15.3431458 19.3431458,14 21,14 C22.6568542,14 24,15.3431458 24,17 C24,18.6568542 22.6568542,20 21,20 Z M22,17 C22.5522847,17 23,16.5522847 23,16 C23,15.4477153 22.5522847,15 22,15 C21.4477153,15 21,15.4477153 21,16 C21,16.5522847 21.4477153,17 22,17 Z" id="eye-lt-copy" stroke="#0B1532" stroke-width="0.5" fill="#FFFFFF"></path>
        <path d="M16.25,11.5 C15.7990416,8.54325144 15.7990416,6.70411044 16.25,5.982577 C16.7009584,5.26104355 17.9509584,5.10018455 20,5.5" id="Line-3" stroke="#0B1532" stroke-width="1.25" stroke-linecap="round"></path>
    </g>
</svg>