<?xml version="1.0" encoding="UTF-8"?>
<svg width="300px" height="100px" viewBox="0 0 300 100" version="1.1" xmlns="http://www.w3.org/2000/svg" xmlns:xlink="http://www.w3.org/1999/xlink">
    <!-- Generator: Sketch 54.1 (76490) - https://sketchapp.com -->
    <title>Logo Horizontal</title>
    <desc>Created with Sketch.</desc>
    <g id="Logo-Horizontal" stroke="none" stroke-width="1" fill="none" fill-rule="evenodd">
        <g id="baidy-copy" transform="translate(10.000000, 18.000000)">
            <path d="M15.3386104,23.8021497 C15.1597577,23.7907336 14.9804833,23.7873366 14.8013265,23.7919689 C11.4887253,23.8776197 8.87276493,26.6324473 8.95841554,29.9450485 C9.27791647,42.3019645 9.43766159,50.5114675 9.43766159,54.60014 C9.43766159,55.0786783 9.43548274,55.5446734 9.43112108,55.9981472 C9.43025159,56.0885465 9.43142532,56.178954 9.43464136,56.2693003 C9.55252426,59.5809129 12.3326793,62.1699414 15.6442921,62.0520566 C34.822756,61.3693642 47.3749481,61.028077 53.3420906,61.028077 C58.5614197,61.028077 65.6766876,61.2881739 74.7015482,61.8075215 C74.8711306,61.8172804 75.0410509,61.8198334 75.2108499,61.8151737 C78.5233127,61.724271 81.1349024,58.9652985 81.043998,55.6528354 C80.7003838,43.1316455 80.5285714,34.7571757 80.5285714,30.5026673 C80.5285714,29.9877212 80.5310782,29.4874614 80.5360966,29.0018601 C80.5370523,28.9093821 80.5358698,28.8168943 80.5325498,28.724471 C80.4135957,25.4128973 77.6326037,22.8247683 74.3210299,22.9437236 C52.0834215,23.7425144 36.5590186,24.1420089 27.7229666,24.1420089 C23.0201651,24.1420089 18.8933036,24.0290442 15.3386104,23.8021497 Z" id="face" stroke="#0087FF" stroke-width="6"></path>
            <path d="M3,39 L3.020662,39 L3,38.3885398 L3,39 Z M3,51 L3,51.1586203 C3.26699617,51.3304898 3.44731589,51.6261667 3.45880698,51.966228 L3.42615693,51 L3,51 Z M1.98629999,33 L9,33 L9,57 L2.45937742,57 C-0.236318264,57 -2.44673145,54.8630178 -2.5377704,52.1688598 L-3.01084783,38.1688598 C-3.10410654,35.4090113 -0.942408385,33.0961109 1.81744015,33.0028522 C1.90185401,33.0004754 1.90185401,33.0004754 1.98629999,33 Z" id="ear-lt" stroke="#0087FF" stroke-width="6"></path>
            <path d="M85.9844044,33 L94,33 L94,57 L86.5248536,57 C83.838473,57 81.6322016,54.8772551 81.528575,52.1928739 L80.9881258,38.1928739 C80.8816045,35.4335055 83.032162,33.1102428 85.7915304,33.0037214 C85.8879435,33.0006204 85.8879435,33.0006204 85.9844044,33 Z" id="ear-rt" stroke="#0087FF" stroke-width="6" transform="translate(87.500000, 45.000000) scale(-1, 1) translate(-87.500000, -45.000000) "></path>
            <circle id="transmitter" stroke="#0087FF" stroke-width="5" cx="61.5" cy="4.5" r="4.5"></circle>
            <path d="M45.5,22.5 C44.5170045,13.3846978 44.6836712,7.79687631 46,5.7365355 C47.3163288,3.6761947 50.9829955,3.2640162 57,4.5" id="Line-2" stroke="#0087FF" stroke-width="6" stroke-linecap="round"></path>
            <path d="M29.5,50 C24.8055796,50 21,46.1944204 21,41.5 C21,36.8055796 24.8055796,33 29.5,33 C34.1944204,33 38,36.8055796 38,41.5 C38,46.1944204 34.1944204,50 29.5,50 Z M31.5,44 C33.9852814,44 36,41.9852814 36,39.5 C36,37.0147186 33.9852814,35 31.5,35 C29.0147186,35 27,37.0147186 27,39.5 C27,41.9852814 29.0147186,44 31.5,44 Z" id="eye-lt" stroke="#FFFFFF" stroke-width="2.5" fill="#FFFFFF"></path>
            <path d="M61.5,50 C56.8055796,50 53,46.1944204 53,41.5 C53,36.8055796 56.8055796,33 61.5,33 C66.1944204,33 70,36.8055796 70,41.5 C70,46.1944204 66.1944204,50 61.5,50 Z M63.5,44 C65.9852814,44 68,41.9852814 68,39.5 C68,37.0147186 65.9852814,35 63.5,35 C61.0147186,35 59,37.0147186 59,39.5 C59,41.9852814 61.0147186,44 63.5,44 Z" id="eye-rt" stroke="#FFFFFF" stroke-width="2.5" fill="#FFFFFF"></path>
        </g>
        <text id="baid" font-family="DMSans-9ptRegular_Bold, DM Sans" font-size="80" font-weight="bold" fill="#FFFFFF">
            <tspan x="113" y="83">baid</tspan>
        </text>
    </g>
</svg>