<?xml version="1.0" encoding="UTF-8"?>
<svg width="300px" height="100px" viewBox="0 0 300 100" version="1.1" xmlns="http://www.w3.org/2000/svg" xmlns:xlink="http://www.w3.org/1999/xlink">
    <!-- Generator: Sketch 54.1 (76490) - https://sketchapp.com -->
    <title>Logo Horizontal</title>
    <desc>Created with Sketch.</desc>
    <g id="Logo-Horizontal" stroke="none" stroke-width="1" fill="none" fill-rule="evenodd">
        <g id="baidy-copy" transform="translate(6.000000, 9.000000)">
            <path d="M16.3537308,26.8193125 C16.155631,26.8048239 15.9569339,26.8001814 15.7583736,26.8054021 C12.445811,26.8924978 9.83105279,29.6484658 9.91814727,32.9610282 C10.3056472,47.6990327 10.4993831,57.4404698 10.4993831,62.2134919 C10.4993831,63.1884803 10.4913313,64.1173257 10.4752009,65.0001686 C10.4732341,65.107814 10.4741651,65.2154928 10.4779927,65.3230881 C10.5958018,68.6347014 13.3758979,71.2237915 16.6875111,71.1059829 C39.3173145,70.3009386 54.0802285,69.8984872 61.0185392,69.8984872 C67.2256096,69.8984872 75.7937427,70.2194844 86.7378148,70.8605977 C86.910374,70.8707063 87.0832895,70.8733534 87.2560773,70.8685313 C90.5684979,70.7760906 93.1788063,68.0159056 93.0863635,64.7034847 C92.6701776,49.7903231 92.4620879,39.8662768 92.4620879,34.9030229 C92.4620879,33.8842487 92.4708223,32.9164148 92.4883221,31.9993563 C92.4904205,31.8893949 92.489495,31.7793966 92.4855467,31.6694861 C92.3665869,28.3579121 89.5855902,25.7697878 86.274016,25.8887494 C60.1912823,26.8257047 42.0372516,27.2942768 31.7864619,27.2942768 C25.8321327,27.2942768 20.6897271,27.1364367 16.3537308,26.8193125 Z" id="face" stroke="#0087FF" stroke-width="6" fill="#0087FF"></path>
            <path d="M1.97605875,38 L10,38 L10,64 L2.54375166,64 C-0.148672157,64 -2.35763479,61.8680232 -2.45310409,59.1772925 L-3.020797,43.1772925 C-3.11871293,40.4176052 -0.960920949,38.1010602 1.79876628,38.0031443 C1.88739393,38.0005241 1.88739393,38.0005241 1.97605875,38 Z" id="ear-lt" stroke="#0087FF" stroke-width="6" fill="#0087FF"></path>
            <path d="M97.9732263,38 L107,38 L107,64 L98.6085299,64 C95.9242825,64 93.7189648,61.8805099 93.6124667,59.1983761 L92.9771631,43.1983761 C92.867603,40.4391266 95.0156007,38.1134969 97.7748502,38.0039369 C97.8740122,38.0006563 97.8740122,38.0006563 97.9732263,38 Z" id="ear-rt" stroke="#0087FF" stroke-width="6" fill="#0087FF" transform="translate(100.000000, 51.000000) scale(-1, 1) translate(-100.000000, -51.000000) "></path>
            <circle id="transmitter" stroke="#0087FF" stroke-width="5" cx="70" cy="5" r="5"></circle>
            <path d="M51.7275254,25 C50.5930225,14.7609161 50.7853772,8.48419896 52.3045895,6.16984866 C53.8238018,3.85549836 58.0556053,3.39250436 65,4.78086665" id="Line-2" stroke="#0087FF" stroke-width="6" stroke-linecap="round"></path>
            <path d="M33.5,57 C28.2532949,57 24,52.7467051 24,47.5 C24,42.2532949 28.2532949,38 33.5,38 C38.7467051,38 43,42.2532949 43,47.5 C43,52.7467051 38.7467051,57 33.5,57 Z M35.7352941,50.2941176 C38.5129615,50.2941176 40.7647059,48.0423733 40.7647059,45.2647059 C40.7647059,42.4870385 38.5129615,40.2352941 35.7352941,40.2352941 C32.9576267,40.2352941 30.7058824,42.4870385 30.7058824,45.2647059 C30.7058824,48.0423733 32.9576267,50.2941176 35.7352941,50.2941176 Z" id="eye-lt" stroke="#FFFFFF" stroke-width="2.5" fill="#FFFFFF"></path>
            <path d="M70.5,57 C65.2532949,57 61,52.7467051 61,47.5 C61,42.2532949 65.2532949,38 70.5,38 C75.7467051,38 80,42.2532949 80,47.5 C80,52.7467051 75.7467051,57 70.5,57 Z M72.7352941,50.2941176 C75.5129615,50.2941176 77.7647059,48.0423733 77.7647059,45.2647059 C77.7647059,42.4870385 75.5129615,40.2352941 72.7352941,40.2352941 C69.9576267,40.2352941 67.7058824,42.4870385 67.7058824,45.2647059 C67.7058824,48.0423733 69.9576267,50.2941176 72.7352941,50.2941176 Z" id="eye-rt" stroke="#FFFFFF" stroke-width="2.5" fill="#FFFFFF"></path>
        </g>
        <text id="baid" font-family="DMSans-9ptRegular_Bold, DM Sans" font-size="80" font-weight="bold" fill="#FFFFFF">
            <tspan x="122" y="83">baid</tspan>
        </text>
    </g>
</svg>