<?xml version="1.0" encoding="UTF-8"?>
<svg width="300px" height="100px" viewBox="0 0 300 100" version="1.1" xmlns="http://www.w3.org/2000/svg" xmlns:xlink="http://www.w3.org/1999/xlink">
    <!-- Generator: Sketch 54.1 (76490) - https://sketchapp.com -->
    <title>Logo Horizontal</title>
    <desc>Created with Sketch.</desc>
    <g id="Logo-Horizontal" stroke="none" stroke-width="1" fill="none" fill-rule="evenodd">
        <g id="baidy-copy" transform="translate(6.000000, 9.000000)">
            <path d="M16.3537308,26.8193125 C16.155631,26.8048239 15.9569339,26.8001814 15.7583736,26.8054021 C12.445811,26.8924978 9.83105279,29.6484658 9.91814727,32.9610282 C10.3056472,47.6990327 10.4993831,57.4404698 10.4993831,62.2134919 C10.4993831,63.1884803 10.4913313,64.1173257 10.4752009,65.0001686 C10.4732341,65.107814 10.4741651,65.2154928 10.4779927,65.3230881 C10.5958018,68.6347014 13.3758979,71.2237915 16.6875111,71.1059829 C39.3173145,70.3009386 54.0802285,69.8984872 61.0185392,69.8984872 C67.2256096,69.8984872 75.7937427,70.2194844 86.7378148,70.8605977 C86.910374,70.8707063 87.0832895,70.8733534 87.2560773,70.8685313 C90.5684979,70.7760906 93.1788063,68.0159056 93.0863635,64.7034847 C92.6701776,49.7903231 92.4620879,39.8662768 92.4620879,34.9030229 C92.4620879,33.8842487 92.4708223,32.9164148 92.4883221,31.9993563 C92.4904205,31.8893949 92.489495,31.7793966 92.4855467,31.6694861 C92.3665869,28.3579121 89.5855902,25.7697878 86.274016,25.8887494 C60.1912823,26.8257047 42.0372516,27.2942768 31.7864619,27.2942768 C25.8321327,27.2942768 20.6897271,27.1364367 16.3537308,26.8193125 Z" id="face" stroke="#0087FF" stroke-width="6" fill="#0087FF"></path>
            <path d="M1.97605875,38 L10,38 L10,64 L2.54375166,64 C-0.148672157,64 -2.35763479,61.8680232 -2.45310409,59.1772925 L-3.020797,43.1772925 C-3.11871293,40.4176052 -0.960920949,38.1010602 1.79876628,38.0031443 C1.88739393,38.0005241 1.88739393,38.0005241 1.97605875,38 Z" id="ear-lt" stroke="#0087FF" stroke-width="6" fill="#0087FF"></path>
            <path d="M97.9732263,38 L107,38 L107,64 L98.6085299,64 C95.9242825,64 93.7189648,61.8805099 93.6124667,59.1983761 L92.9771631,43.1983761 C92.867603,40.4391266 95.0156007,38.1134969 97.7748502,38.0039369 C97.8740122,38.0006563 97.8740122,38.0006563 97.9732263,38 Z" id="ear-rt" stroke="#0087FF" stroke-width="6" fill="#0087FF" transform="translate(100.000000, 51.000000) scale(-1, 1) translate(-100.000000, -51.000000) "></path>
            <circle id="transmitter" stroke="#0087FF" stroke-width="5" cx="70" cy="5" r="5"></circle>
            <path d="M51.7275254,25 C50.5930225,14.7609161 50.7853772,8.48419896 52.3045895,6.16984866 C53.8238018,3.85549836 58.0556053,3.39250436 65,4.78086665" id="Line-2" stroke="#0087FF" stroke-width="6" stroke-linecap="round"></path>
            <path d="M33.5,57 C28.2532949,57 24,52.7467051 24,47.5 C24,42.2532949 28.2532949,38 33.5,38 C38.7467051,38 43,42.2532949 43,47.5 C43,52.7467051 38.7467051,57 33.5,57 Z M35.7352941,50.2941176 C38.5129615,50.2941176 40.7647059,48.0423733 40.7647059,45.2647059 C40.7647059,42.4870385 38.5129615,40.2352941 35.7352941,40.2352941 C32.9576267,40.2352941 30.7058824,42.4870385 30.7058824,45.2647059 C30.7058824,48.0423733 32.9576267,50.2941176 35.7352941,50.2941176 Z" id="eye-lt" stroke="#FFFFFF" stroke-width="2.5" fill="#FFFFFF"></path>
            <path d="M70.5,57 C65.2532949,57 61,52.7467051 61,47.5 C61,42.2532949 65.2532949,38 70.5,38 C75.7467051,38 80,42.2532949 80,47.5 C80,52.7467051 75.7467051,57 70.5,57 Z M72.7352941,50.2941176 C75.5129615,50.2941176 77.7647059,48.0423733 77.7647059,45.2647059 C77.7647059,42.4870385 75.5129615,40.2352941 72.7352941,40.2352941 C69.9576267,40.2352941 67.7058824,42.4870385 67.7058824,45.2647059 C67.7058824,48.0423733 69.9576267,50.2941176 72.7352941,50.2941176 Z" id="eye-rt" stroke="#FFFFFF" stroke-width="2.5" fill="#FFFFFF"></path>
        </g>
        <path d="M151.09125,83.96 C149.022073,83.96 147.171258,83.6997943 145.53875,83.179375 C143.906242,82.6589557 142.469381,81.9316713 141.228125,80.9975 C139.986869,80.0633287 138.934171,78.9970893 138.07,77.79875 L136.87625,83 L127.27875,83 L127.27875,25.4 L138.07875,25.4 L138.07875,48.28 C139.350423,46.4008239 141.043114,44.8443812 143.156875,43.610625 C145.270636,42.3768688 147.894984,41.76 151.03,41.76 C154.762519,41.76 158.078944,42.6751992 160.979375,44.505625 C163.879806,46.3360508 166.171242,48.8379008 167.85375,52.01125 C169.536258,55.1845992 170.3775,58.8116463 170.3775,62.8925 C170.3775,66.9141868 169.540008,70.5189424 167.865,73.706875 C166.189992,76.8948076 163.907098,79.4006159 161.01625,81.224375 C158.125402,83.0481341 154.817102,83.96 151.09125,83.96 Z M148.585,74.55625 C150.683344,74.55625 152.54395,74.0620883 154.166875,73.07375 C155.7898,72.0854117 157.064995,70.7173004 157.9925,68.969375 C158.920005,67.2214496 159.38375,65.1929282 159.38375,62.88375 C159.38375,60.5979052 158.920005,58.5700088 157.9925,56.8 C157.064995,55.0299912 155.7898,53.64813 154.166875,52.654375 C152.54395,51.66062 150.683344,51.16375 148.585,51.16375 C146.464989,51.16375 144.591675,51.6622867 142.965,52.659375 C141.338325,53.6564633 140.067088,55.0304079 139.15125,56.78125 C138.235412,58.5320921 137.7775,60.5637384 137.7775,62.87625 C137.7775,65.1662615 138.235412,67.1926995 139.15125,68.955625 C140.067088,70.7185505 141.338325,72.0927034 142.965,73.078125 C144.591675,74.0635466 146.464989,74.55625 148.585,74.55625 Z M193.263881,83.96 C189.928864,83.96 187.166809,83.4135471 184.977631,82.320625 C182.788454,81.2277029 181.162636,79.7545926 180.100131,77.90125 C179.037626,76.0479074 178.506381,74.0145944 178.506381,71.80125 C178.506381,69.3412377 179.13575,67.179801 180.394506,65.316875 C181.653262,63.453949 183.55866,61.9925053 186.110756,60.9325 C188.662852,59.8724947 191.859695,59.3425 195.701381,59.3425 L205.623881,59.3425 C205.623881,57.3458234 205.367842,55.7022981 204.855756,54.411875 C204.34367,53.1214519 203.52472,52.1527116 202.398881,51.505625 C201.273042,50.8585384 199.782224,50.535 197.926381,50.535 C195.905538,50.535 194.186597,50.9774956 192.769506,51.8625 C191.352416,52.7475044 190.477633,54.0833244 190.145131,55.87 L179.653881,55.87 C179.947216,52.9874856 180.902206,50.4968855 182.518881,48.398125 C184.135556,46.2993645 186.284284,44.6683391 188.965131,43.505 C191.645978,42.3416608 194.648865,41.76 197.973881,41.76 C201.782234,41.76 205.066367,42.3931187 207.826381,43.659375 C210.586395,44.9256313 212.70929,46.7641546 214.195131,49.175 C215.680972,51.5858454 216.423881,54.5299826 216.423881,58.0075 L216.423881,83 L207.328881,83 L206.131381,76.845 C205.573045,77.8850052 204.884927,78.8362457 204.067006,79.69875 C203.249085,80.5612543 202.30972,81.3129135 201.248881,81.95375 C200.188043,82.5945865 198.995138,83.0891649 197.670131,83.4375 C196.345125,83.7858351 194.876389,83.96 193.263881,83.96 Z M195.833881,75.6075 C197.219721,75.6075 198.458251,75.3581275 199.549506,74.859375 C200.640762,74.3606225 201.582211,73.6702127 202.373881,72.788125 C203.165552,71.9060373 203.795754,70.8885474 204.264506,69.735625 C204.733259,68.5827026 205.045547,67.3566732 205.201381,66.0575 L205.201381,65.95 L196.931381,65.95 C195.30554,65.95 193.971595,66.1583313 192.929506,66.575 C191.887418,66.9916688 191.123259,67.5693713 190.637006,68.308125 C190.150754,69.0468787 189.907631,69.9012451 189.907631,70.87125 C189.907631,71.8920884 190.152629,72.7560381 190.642631,73.463125 C191.132634,74.1702119 191.823043,74.7043732 192.713881,75.065625 C193.604719,75.4268768 194.644709,75.6075 195.833881,75.6075 Z M226.808527,83 L226.808527,42.72 L237.608527,42.72 L237.608527,83 L226.808527,83 Z M232.232277,37.1675 C230.273933,37.1675 228.674991,36.5868808 227.435402,35.425625 C226.195812,34.2643692 225.576027,32.8137587 225.576027,31.07375 C225.576027,29.3029078 226.195812,27.8479224 227.435402,26.70875 C228.674991,25.5695776 230.273933,25 232.232277,25 C234.199786,25 235.808937,25.5695776 237.059777,26.70875 C238.310616,27.8479224 238.936027,29.3029078 238.936027,31.07375 C238.936027,32.8137587 238.310616,34.2643692 237.059777,35.425625 C235.808937,36.5868808 234.199786,37.1675 232.232277,37.1675 Z M266.338954,83.96 C262.675602,83.96 259.391677,83.0498008 256.487079,81.229375 C253.582481,79.4089492 251.298754,76.9060576 249.635829,73.720625 C247.972904,70.5351924 247.141454,66.9275201 247.141454,62.8975 C247.141454,58.8133129 247.980612,55.1779326 249.658954,51.99125 C251.337296,48.8045674 253.651856,46.3027174 256.602704,44.485625 C259.553552,42.6685326 262.890185,41.76 266.612704,41.76 C269.496052,41.76 272.026027,42.2918697 274.202704,43.355625 C276.379382,44.4193803 278.125614,45.9283236 279.441454,47.8825 L279.441454,25.4 L290.241454,25.4 L290.241454,83 L280.643954,83 L279.448954,77.455 C278.633117,78.6158391 277.632085,79.6927034 276.445829,80.685625 C275.259573,81.6785466 273.840004,82.472497 272.187079,83.0675 C270.534154,83.662503 268.584799,83.96 266.338954,83.96 Z M268.921454,74.55625 C271.057298,74.55625 272.936654,74.0577133 274.559579,73.060625 C276.182504,72.0635367 277.449783,70.6837588 278.361454,68.92125 C279.273125,67.1587412 279.728954,65.1325115 279.728954,62.8425 C279.728954,60.5299884 279.273125,58.4960504 278.361454,56.740625 C277.449783,54.9851996 276.180212,53.6168799 274.552704,52.635625 C272.925196,51.6543701 271.040631,51.16375 268.898954,51.16375 C266.851444,51.16375 265.005421,51.6564534 263.360829,52.641875 C261.716238,53.6272966 260.434375,54.9970746 259.515204,56.75125 C258.596033,58.5054254 258.136454,60.5216553 258.136454,62.8 C258.136454,65.1016782 258.595616,67.1366578 259.513954,68.905 C260.432292,70.6733422 261.712904,72.0572867 263.355829,73.056875 C264.998754,74.0564633 266.853944,74.55625 268.921454,74.55625 Z" id="baid" fill="#FFFFFF" fill-rule="nonzero"></path>
    </g>
</svg>