<?xml version="1.0" encoding="UTF-8"?>
<svg width="40px" height="40px" viewBox="0 0 40 40" version="1.1" xmlns="http://www.w3.org/2000/svg" xmlns:xlink="http://www.w3.org/1999/xlink">
    <!-- Generator: Sketch 54.1 (76490) - https://sketchapp.com -->
    <title>Artboard-40x40</title>
    <desc>Created with Sketch.</desc>
    <g id="Artboard-40x40" stroke="none" stroke-width="1" fill="none" fill-rule="evenodd">
        <g id="SvgjsG1922" transform="translate(0.000000, 2.000000)" fill="#000000" fill-rule="nonzero">
            <g id="Group">
                <path d="M28.0636023,2.45506343 C29.0064907,2.23534959 29.6046671,2.7464231 30.1115964,3.65393682 C30.9683068,5.19671015 31.9416109,6.68694321 32.8946379,8.18672904 C33.2494883,8.74079005 33.2900427,9.21842885 32.9250536,9.80114818 C31.1001084,12.7242976 29.3055789,15.6569999 27.521188,18.5992549 C27.1207139,19.2631728 26.9230115,19.2201853 26.4211516,18.6135841 C25.3261844,17.2905246 25.3768774,16.1537442 26.4008744,14.7685917 C27.6022967,13.1446198 28.5198386,11.3391451 29.5995979,9.6339746 C29.9037554,9.15155942 29.8733396,8.78377754 29.5793207,8.3204679 C28.5908087,6.76336541 27.6276431,5.19193376 26.6847548,3.61094933 C26.0510932,2.54581481 26.1119247,2.4693926 27.4552872,2.45983982 C27.5921581,2.45506343 27.7391676,2.45506343 28.0636023,2.45506343 Z" id="Path"></path>
                <path d="M38.4860673,17.4147107 C39.1602832,18.0690758 38.9929965,18.8189687 38.4150972,19.683495 C37.4316545,21.1593989 36.5546669,22.7021722 35.6624715,24.2306163 C35.3329675,24.7942301 34.9122162,25.0712606 34.197446,25.0712606 C30.6033177,25.0569315 27.0041202,25.0712606 23.4099919,25.099919 C22.5989052,25.1046953 22.5380737,24.927969 22.8422312,24.2067344 C23.5063085,22.6496319 24.5759292,22.1194528 26.3552508,22.2531917 C28.4488685,22.4155889 30.5678327,22.2484153 32.671589,22.2722973 C33.2646962,22.2770737 33.5891309,22.071689 33.867942,21.5940502 C34.7956225,20.003513 35.7537187,18.4320813 36.7320921,16.865426 C37.3911001,15.8098443 37.492486,15.8241735 38.1768405,16.9131899 C38.2528798,17.0325996 38.3238499,17.1472329 38.4860673,17.4147107 Z" id="Path"></path>
                <path d="M30.0152798,33.4251633 C29.7567459,34.3040186 28.9811442,34.5476144 27.9013849,34.5094033 C26.0510932,34.4520867 24.1957322,34.5141797 22.3454405,34.5571672 C21.6610861,34.5714964 21.1997805,34.3708881 20.8398607,33.7881687 C19.040262,30.8554665 17.2153167,27.932317 15.3802329,25.0187204 C14.9645509,24.3595788 15.1014218,24.2210636 15.9125086,24.1112066 C17.6766223,23.8676109 18.7006194,24.4694357 19.4711518,25.9883271 C20.3785551,27.7746962 21.5951853,29.4177737 22.6343902,31.1420498 C22.9284092,31.6292414 23.2832596,31.7868622 23.8611589,31.772533 C25.78749,31.7295455 27.7138211,31.7152163 29.6350829,31.7247691 C30.9328217,31.7295455 30.9683068,31.8202969 30.3194374,32.9236425 C30.2484673,33.0430522 30.1774972,33.1624619 30.0152798,33.4251633 Z" id="Path"></path>
                <path d="M11.0713344,34.5953783 C10.1335153,34.8246449 9.52520027,34.3183478 9.01320174,33.4203869 C8.13621417,31.8871663 7.14263288,30.406486 6.17439805,28.9210294 C5.81447829,28.3717447 5.76885466,27.8941059 6.12370512,27.3066102 C7.90809602,24.3643552 9.66714045,21.407771 11.4160463,18.4464105 C11.8114511,17.7777162 12.0040842,17.8159273 12.5160827,18.4225285 C13.6262578,19.7360352 13.5907727,20.8728156 12.5870528,22.2675209 C11.4059077,23.905822 10.5137123,25.7208494 9.45423018,27.4355727 C9.15514193,27.9227643 9.19062698,28.2905461 9.48971522,28.7490794 C10.4985044,30.2918527 11.4768778,31.8537316 12.4451126,33.4251633 C13.0939821,34.4855214 13.0331506,34.5619436 11.6897881,34.5858255 C11.5377093,34.5906019 11.3906998,34.5906019 11.0713344,34.5953783 Z" id="Path"></path>
                <path d="M0.461305601,19.7551408 C-0.223048862,19.105552 -0.0659008002,18.3556591 0.50185994,17.4863565 C1.47009477,16.0008998 2.32680517,14.4485737 3.19872345,12.9058004 C3.52315816,12.3374102 3.93377084,12.0556033 4.65361035,12.0508269 C8.2477386,12.026945 11.8469362,11.9696283 15.4410644,11.9027589 C16.2521512,11.8884297 16.3129827,12.0651561 16.0189637,12.7863907 C15.3751636,14.353046 14.3156815,14.8927778 12.5312906,14.7781445 C10.4376729,14.6396292 8.3187087,14.8259084 6.21495238,14.8306848 C5.62184518,14.8306848 5.29741047,15.0456222 5.02873798,15.523261 C4.12133466,17.123351 3.18351558,18.7091118 2.22541933,20.2805435 C1.5816192,21.3409016 1.48023336,21.3265724 0.780671017,20.2518851 C0.69956234,20.1372518 0.623522955,20.0178421 0.461305601,19.7551408 Z" id="Path"></path>
                <path d="M8.72425208,3.64916043 C8.97264741,2.76552865 9.74317984,2.51715648 10.8229391,2.54103842 C12.6732308,2.57924952 14.5285918,2.49327454 16.3788835,2.43118149 C17.0632379,2.40729955 17.5296128,2.60313146 17.8946019,3.1858508 C19.7296857,6.09944748 21.590116,8.998715 23.4657541,11.8932061 C23.8865054,12.5475713 23.7547038,12.6860865 22.943617,12.8102726 C21.1845726,13.072974 20.150437,12.4807019 19.3596274,10.9713632 C18.4319469,9.1993233 17.1950395,7.57057499 16.1304882,5.85585169 C15.8313999,5.3734365 15.4765495,5.2158157 14.8986501,5.23492125 C12.972319,5.30179068 11.0510573,5.3352254 9.12472618,5.34955456 C7.82698734,5.35910734 7.786433,5.26835597 8.42516384,4.16023395 C8.49613393,4.03604786 8.56710402,3.91663816 8.72425208,3.64916043 Z" id="Path"></path>
                <path d="M14.7212249,7.64222081 C12.6326765,7.65177358 10.544128,7.72819579 8.45557959,7.73297218 C7.9892047,6.98307926 7.11728642,6.47678213 6.12877441,6.47678213 C4.63840247,6.47678213 3.42684161,7.61833887 3.42684161,9.02259694 C3.42684161,10.426855 4.63840247,11.5684117 6.12877441,11.5684117 C7.0615242,11.5684117 7.88274956,11.1242077 8.36940162,10.4459606 C9.78880347,10.3934203 11.2132746,10.3265509 12.6225379,10.426855 C14.1078405,10.5319355 14.792195,9.82980651 15.3954408,8.79333032 C15.9277165,7.86193465 15.8263306,7.63744442 14.7212249,7.64222081 Z M6.12877441,10.3552092 C5.99697281,10.3552092 5.86517121,10.3361036 5.7435082,10.3074453 C5.150401,10.1498245 4.71444186,9.6339746 4.71444186,9.02259694 C4.71444186,8.28703319 5.3481034,7.68998469 6.12877441,7.68998469 C6.36196186,7.68998469 6.58501072,7.74252495 6.78271312,7.83805271 C7.23388014,8.06254295 7.54310697,8.50674703 7.54310697,9.02259694 C7.54310697,9.75816069 6.90944543,10.3552092 6.12877441,10.3552092 Z" id="Shape"></path>
                <path d="M8.53161897,16.9179663 C7.95371965,16.015229 7.69011645,15.9817943 7.14263288,16.8845316 C6.01724998,18.723441 4.96790647,20.6005615 3.8273157,22.4299181 C3.80703853,22.4633528 3.78676136,22.4967875 3.76648419,22.5254458 C2.31666659,22.5636569 1.14566006,23.6908845 1.14566006,25.0664842 C1.14566006,26.4707423 2.35722093,27.6122991 3.84759287,27.6122991 C5.33796481,27.6122991 6.54952568,26.4707423 6.54952568,25.0664842 C6.54952568,24.6557149 6.44307054,24.2640511 6.26057601,23.9201511 C7.02096986,22.5923153 7.73574008,21.2358211 8.6431434,19.9987366 C9.47957664,18.8428507 9.1754191,17.9305606 8.53161897,16.9179663 Z M5.18588604,25.4868064 C4.99832223,26.0169855 4.46604653,26.4038729 3.84252358,26.4038729 C3.06185256,26.4038729 2.42819102,25.8068244 2.42819102,25.0712606 C2.42819102,24.521976 2.78304148,24.0443372 3.28997072,23.8437289 C3.45725736,23.7768595 3.64482118,23.7386484 3.84252358,23.7386484 C4.6231946,23.7386484 5.25685614,24.3356969 5.25685614,25.0712606 C5.25685614,25.2145523 5.23150967,25.3530675 5.18588604,25.4868064 Z" id="Shape"></path>
                <path d="M27.2474462,9.33306216 C26.1981027,7.55624582 25.0777891,5.81764059 24.0385842,4.03604786 C24.3579496,3.62050211 24.5404441,3.10942859 24.5404441,2.56014397 C24.5404441,1.1558859 23.3288833,0.014329164 21.8385113,0.014329164 C20.3481394,0.014329164 19.1365785,1.1558859 19.1365785,2.56014397 C19.1365785,3.79722846 20.0794669,4.83370466 21.3265128,5.0581949 C22.1375996,6.33826688 22.9892407,7.59445693 23.6381101,8.94139834 C24.2565637,10.2214703 25.2400065,10.4459606 26.497191,10.4411842 C27.6225738,10.4364078 27.7847912,10.2405759 27.2474462,9.33306216 Z M23.2173588,2.8658328 C23.0703493,3.45332853 22.5076579,3.89275622 21.8385113,3.89275622 C21.2352655,3.89275622 20.7131284,3.52975073 20.515426,3.02822999 C20.4596638,2.88493835 20.4241788,2.72731755 20.4241788,2.56014397 C20.4241788,1.82458022 21.0578403,1.22753172 21.8385113,1.22753172 C22.6191823,1.22753172 23.2528439,1.82458022 23.2528439,2.56014397 C23.2579132,2.66522451 23.2427053,2.76552865 23.2173588,2.8658328 Z" id="Shape"></path>
                <path d="M35.3278982,9.76293708 C33.8375262,9.76293708 32.6259654,10.9044938 32.6259654,12.3087519 C32.6259654,12.6001116 32.6766583,12.8771421 32.7729748,13.135067 L32.7729748,13.135067 C31.9821652,14.4724557 31.2420486,15.8385026 30.3143681,17.0803635 C29.4525884,18.2266966 29.741538,19.1437631 30.3751996,20.1611338 C30.9429603,21.0734239 31.2065635,21.1068586 31.7641857,20.213674 C32.8844993,18.4320813 33.9338428,16.6122775 35.064295,14.8402375 C35.1504729,14.8497903 35.2366509,14.8497903 35.3228289,14.8497903 C36.8132008,14.8497903 38.0247617,13.7082336 38.0247617,12.3039755 C38.0247617,10.8997174 36.8182701,9.76293708 35.3278982,9.76293708 Z M35.6878179,13.5936003 C35.5712242,13.6222586 35.4546305,13.6365878 35.3278982,13.6365878 C34.5472272,13.6365878 33.9135656,13.0395393 33.9135656,12.3039755 C33.9135656,12.026945 34.0048129,11.76902 34.1619609,11.5540826 C34.4154256,11.2006299 34.8463154,10.9713632 35.3278982,10.9713632 C36.1085692,10.9713632 36.7422307,11.5684117 36.7422307,12.3039755 C36.7422307,12.9249059 36.296133,13.4455322 35.6878179,13.5936003 Z" id="Shape"></path>
                <path d="M33.122756,25.6348744 C32.255907,25.6348744 31.4803053,26.0265382 30.9835147,26.6283631 C29.3866876,26.6617978 27.7898605,26.7429964 26.2082413,26.6092576 C24.7229386,26.4850715 24.0284456,27.1824241 23.4150612,28.2093476 C22.8675777,29.1311904 22.9638942,29.3604571 24.0689999,29.3652334 C26.28935,29.3795626 28.5097,29.3174696 30.73005,29.3461279 C31.1812171,30.1581139 32.0835511,30.7169513 33.122756,30.7169513 C34.613128,30.7169513 35.8246888,29.5753945 35.8246888,28.1711364 C35.8246888,26.7764312 34.613128,25.6348744 33.122756,25.6348744 Z M33.122756,29.5085251 C32.7729748,29.5085251 32.4536094,29.3891154 32.2052141,29.1885071 C31.9010566,28.9449113 31.7084235,28.5819058 31.7084235,28.1759128 C31.7084235,27.4403491 32.342085,26.8433006 33.122756,26.8433006 L33.1278253,26.8433006 C33.9084963,26.8433006 34.5421579,27.4403491 34.5421579,28.1759128 C34.5370886,28.9114766 33.903427,29.5085251 33.122756,29.5085251 Z" id="Shape"></path>
                <path d="M17.757731,31.9014955 C16.9365056,30.640529 16.0696567,29.3938918 15.4055794,28.0612795 C14.7719178,26.7907603 13.7834058,26.5758229 12.5312906,26.5949284 C11.410977,26.6092576 11.2487597,26.8098659 11.7962432,27.7078268 C12.8658639,29.470314 14.0064547,31.1945901 15.0659368,32.9570772 C14.7617792,33.3678466 14.584354,33.8693673 14.584354,34.4043228 C14.584354,35.8085809 15.7959149,36.9501376 17.2862868,36.9501376 C18.7766588,36.9501376 19.9882196,35.8085809 19.9882196,34.4043228 C19.9882196,33.1576855 19.0199848,32.1164329 17.757731,31.9014955 Z M17.2862868,35.7417114 C16.5056158,35.7417114 15.8719543,35.1446629 15.8719543,34.4090992 C15.8719543,34.3135714 15.8820928,34.2180437 15.90237,34.1272923 C16.0392409,33.5254674 16.6070016,33.0717105 17.2862868,33.0717105 C17.8895326,33.0717105 18.4066004,33.4299396 18.6093721,33.9314604 L18.6093721,33.9314604 C18.6651343,34.0795284 18.7006194,34.2371492 18.7006194,34.4043228 C18.7006194,35.1446629 18.0669578,35.7417114 17.2862868,35.7417114 Z" id="Shape"></path>
            </g>
        </g>
    </g>
</svg>